<svg width="14" height="12" viewBox="0 0 14 12" fill="none" xmlns="http://www.w3.org/2000/svg">
<path d="M8.38012 0.177251L14 5.97044L8.38012 11.7636C8.32936 11.832 8.26488 11.8883 8.19103 11.9289C8.11719 11.9695 8.0357 11.9933 7.9521 11.9988C7.86849 12.0043 7.78472 11.9912 7.70644 11.9606C7.62817 11.93 7.55722 11.8825 7.49841 11.8213C7.43959 11.7601 7.39428 11.6867 7.36555 11.606C7.33681 11.5253 7.32532 11.4392 7.33184 11.3536C7.33837 11.2679 7.36277 11.1847 7.40338 11.1096C7.444 11.0344 7.49988 10.9691 7.56725 10.918L11.7719 6.57014L0.584796 6.57014C0.429698 6.57014 0.280954 6.50696 0.171284 6.39449C0.0616131 6.28203 0 6.12949 0 5.97044C0 5.81138 0.0616131 5.65884 0.171284 5.54638C0.280954 5.43391 0.429698 5.37073 0.584796 5.37073L11.7719 5.37073L7.56725 1.02284C7.45791 0.909913 7.39679 0.757066 7.39734 0.597925C7.39788 0.438784 7.46006 0.286385 7.57018 0.174253C7.68029 0.0621204 7.82934 -0.000558853 7.98452 2.86102e-06C8.13971 0.000565529 8.28832 0.0643244 8.39766 0.177251H8.38012Z" fill="#E1D244"/>
</svg>
