<svg width="30" height="24" viewBox="0 0 30 24" fill="none" xmlns="http://www.w3.org/2000/svg">
<path d="M15.3668 0C16.1678 0.00450028 18.1719 0.0240014 20.302 0.109507L21.0581 0.142509C23.2017 0.243015 25.3438 0.417026 26.4073 0.712544C27.8249 1.11157 28.9379 2.27264 29.3145 3.74573C29.9145 6.08588 29.9895 10.6492 29.9985 11.7547L30 11.9827V12.2438C29.9895 13.3493 29.9145 17.9141 29.3145 20.2528C28.9334 21.7304 27.8189 22.8929 26.4073 23.286C25.3438 23.5815 23.2017 23.7555 21.0581 23.856L20.302 23.8905C18.1719 23.9745 16.1678 23.9955 15.3668 23.9985L15.0142 24H14.6317C12.9366 23.9895 5.84729 23.913 3.59118 23.286C2.17511 22.8869 1.06055 21.7259 0.684034 20.2528C0.0840043 17.9126 0.00900045 13.3493 0 12.2438V11.7547C0.00900045 10.6492 0.0840043 6.08438 0.684034 3.74573C1.06505 2.26814 2.17961 1.10557 3.59268 0.714044C5.84729 0.0855051 12.9381 0.00900056 14.6332 0H15.3668ZM11.9991 6.75042V17.2511L20.9995 12.0007L11.9991 6.75042Z" fill="white"/>
</svg>
